<svg xmlns="http://www.w3.org/2000/svg" viewBox="0 0 303.83 220.76"><defs><style>.cls-1{fill:#fff;}</style></defs><title>intrepits-logo-white</title><g id="Layer_2" data-name="Layer 2"><g id="Capa_1" data-name="Capa 1"><polygon class="cls-1" points="98.9 0 106.48 28.14 116.84 28.14 112.89 13.48 226.94 38.07 131.94 84.24 121.95 47.14 111.6 47.14 125.45 98.58 253.6 35.64 98.9 0"/><path class="cls-1" d="M253.6,35.64,50.23,31.73,125.3,98.58,242.57,41.06ZM126.76,86.72,77.69,41.82,215.5,43.21Z"/><path class="cls-1" d="M93.55,220.76a3.81,3.81,0,0,1-2.17-.73A3.37,3.37,0,0,1,90,218l1.2-.48a2.74,2.74,0,0,0,.88,1.42,2.21,2.21,0,0,0,1.49.58,2.39,2.39,0,0,0,1.46-.45,1.44,1.44,0,0,0,.61-1.22,1.56,1.56,0,0,0-.61-1.32,6.27,6.27,0,0,0-1.92-.86A5.13,5.13,0,0,1,91,214.55a2.31,2.31,0,0,1-.7-1.73,2.54,2.54,0,0,1,.87-1.91,3.19,3.19,0,0,1,2.27-.81,3.28,3.28,0,0,1,2.11.65,3,3,0,0,1,1.06,1.42l-1.2.5a1.77,1.77,0,0,0-.63-.9,2,2,0,0,0-1.3-.41,2,2,0,0,0-1.29.42,1.29,1.29,0,0,0-.53,1,1.19,1.19,0,0,0,.49,1,4.69,4.69,0,0,0,1.45.71,12.06,12.06,0,0,1,1.26.47,5.81,5.81,0,0,1,1,.61,2.43,2.43,0,0,1,.78.94,3,3,0,0,1,.26,1.31,2.82,2.82,0,0,1-.31,1.33,2.49,2.49,0,0,1-.81.93,4,4,0,0,1-1.09.52A4.08,4.08,0,0,1,93.55,220.76Z"/><path class="cls-1" d="M111.33,219.22a5.3,5.3,0,0,1-7.49,0,5.52,5.52,0,0,1,0-7.57,5.28,5.28,0,0,1,7.48,0,5.5,5.5,0,0,1,0,7.57Zm-6.52-.86a3.93,3.93,0,0,0,5.55,0,4.36,4.36,0,0,0,0-5.86,3.93,3.93,0,0,0-5.55,0,4.36,4.36,0,0,0,0,5.86Z"/><path class="cls-1" d="M118.66,220.54V210.32H120v9h4.42v1.25Z"/><path class="cls-1" d="M133.45,220.76a3.58,3.58,0,0,1-2.73-1.11,4.07,4.07,0,0,1-1-2.91v-6.42H131v6.48a2.93,2.93,0,0,0,.63,2,2.62,2.62,0,0,0,3.67,0,2.94,2.94,0,0,0,.63-2v-6.48h1.31v6.42a4.13,4.13,0,0,1-1,2.92A3.57,3.57,0,0,1,133.45,220.76Z"/><path class="cls-1" d="M148.14,220.76a5.33,5.33,0,1,1,0-10.67,4.72,4.72,0,0,1,3.75,1.67l-.91.88a3.44,3.44,0,0,0-2.84-1.3,3.87,3.87,0,0,0-2.82,1.13,4.37,4.37,0,0,0,0,5.91,3.87,3.87,0,0,0,2.82,1.13,4,4,0,0,0,3.14-1.48l.91.91a5,5,0,0,1-1.75,1.33A5.36,5.36,0,0,1,148.14,220.76Z"/><path class="cls-1" d="M158,220.54V210.32h1.31v10.21Z"/><path class="cls-1" d="M174,219.22a5.3,5.3,0,0,1-7.49,0,5.52,5.52,0,0,1,0-7.57,5.28,5.28,0,0,1,7.48,0,5.5,5.5,0,0,1,0,7.57Zm-6.52-.86a3.93,3.93,0,0,0,5.55,0,4.36,4.36,0,0,0,0-5.86,3.93,3.93,0,0,0-5.55,0,4.36,4.36,0,0,0,0,5.86Z"/><path class="cls-1" d="M181.35,220.54V210.32h1.6l5,7.94H188l-.06-2v-6h1.31v10.21h-1.37l-5.19-8.33h-.06l.06,2v6.36Z"/><path class="cls-1" d="M201.51,211.58h-4.65v3.24h4.19V216h-4.19v3.24h4.65v1.25h-6V210.32h6Z"/><path class="cls-1" d="M210.44,220.76a3.81,3.81,0,0,1-2.18-.73,3.37,3.37,0,0,1-1.39-2l1.2-.48a2.74,2.74,0,0,0,.88,1.42,2.21,2.21,0,0,0,1.49.58,2.39,2.39,0,0,0,1.46-.45,1.44,1.44,0,0,0,.61-1.22,1.56,1.56,0,0,0-.61-1.32,6.26,6.26,0,0,0-1.92-.86,5.13,5.13,0,0,1-2.05-1.11,2.31,2.31,0,0,1-.7-1.73,2.53,2.53,0,0,1,.87-1.91,3.18,3.18,0,0,1,2.27-.81,3.28,3.28,0,0,1,2.11.65,3,3,0,0,1,1.06,1.42l-1.2.5a1.77,1.77,0,0,0-.63-.9,2,2,0,0,0-1.3-.41,2,2,0,0,0-1.29.42,1.29,1.29,0,0,0-.54,1,1.19,1.19,0,0,0,.49,1,4.69,4.69,0,0,0,1.45.71,12,12,0,0,1,1.26.47,5.81,5.81,0,0,1,1,.61,2.42,2.42,0,0,1,.78.94,3.05,3.05,0,0,1,.26,1.31,2.82,2.82,0,0,1-.31,1.33,2.49,2.49,0,0,1-.81.93,4.09,4.09,0,0,1-2.29.7Z"/><path class="cls-1" d="M8.33,177.67H0V133.31H8.33Z"/><path class="cls-1" d="M27.16,133.31v6.15h.36a14.75,14.75,0,0,1,5.7-5.38,16.55,16.55,0,0,1,8.33-2.22q8.24,0,12.58,5.07t4.34,13.58v27.16H50.15V151.78q0-12.31-11-12.31a10.25,10.25,0,0,0-8.42,4.12,14.94,14.94,0,0,0-3.26,9.55v24.53H19.19V133.31Z"/><path class="cls-1" d="M81.18,178.39q-7,0-10.64-3.71t-3.67-10.5V120.73h8.33v12.58H86.07v7.6H75.21v22.63q0,7.25,6,7.24a8.89,8.89,0,0,0,3.8-.72l2.89,7.15A16.87,16.87,0,0,1,81.18,178.39Z"/><path class="cls-1" d="M102.36,177.67H94V133.31h8v7.24h.36a11.36,11.36,0,0,1,5.2-6,14.9,14.9,0,0,1,7.65-2.35,15.88,15.88,0,0,1,6.25,1.09l-3.17,7.79a12.58,12.58,0,0,0-4.44-.63,10.88,10.88,0,0,0-8,3.57,12.85,12.85,0,0,0-3.48,9.37Z"/><path class="cls-1" d="M144.27,179.12q-10,0-16.34-6.7t-6.29-16.93a24.43,24.43,0,0,1,6.11-16.66,19.84,19.84,0,0,1,15.62-7q9.86,0,15.79,6.43t5.93,17.2L165,157H130q.36,6.7,4.48,10.59a13.58,13.58,0,0,0,9.64,3.89q9,0,12.13-7.61l7.42,3.08a19.91,19.91,0,0,1-7.15,8.64A20.79,20.79,0,0,1,144.27,179.12Zm11.95-29a11.83,11.83,0,0,0-3.48-7.24q-3.21-3.44-9.55-3.44a12,12,0,0,0-8,2.9,14.78,14.78,0,0,0-4.66,7.79Z"/><path class="cls-1" d="M195.78,179.12a18.88,18.88,0,0,1-9.1-2.17,15.37,15.37,0,0,1-6-5.43h-.36l.36,6.15v14.55h-8.33V133.31h8v6.15h.36a15.35,15.35,0,0,1,6-5.43,18.86,18.86,0,0,1,9.1-2.17,19.51,19.51,0,0,1,14.85,6.79,25.82,25.82,0,0,1,0,33.67A19.51,19.51,0,0,1,195.78,179.12Zm-1.36-7.6a13.25,13.25,0,0,0,10-4.39q4.16-4.39,4.16-11.63t-4.16-11.63a13.58,13.58,0,0,0-20,0q-4.12,4.34-4.12,11.68t4.12,11.68A13.27,13.27,0,0,0,194.42,171.51Z"/><path class="cls-1" d="M233.08,177.67h-8.33V133.31h8.33Z"/><g id="GZWG0M"><path class="cls-1" d="M265.91,166.8v-.36c.34-.09.69-.16,1-.28l6.22-2.24a30.52,30.52,0,0,0,2.58,3.62c4.33,4.53,10.55,5.34,16.13,3,2.49-1.05,3.69-3.27,3-5.47a6.26,6.26,0,0,0-3.28-3.49,31.67,31.67,0,0,0-8-2.79,35.8,35.8,0,0,1-9.23-3.22,13,13,0,0,1-5.1-4.63c-3.85-6.53-.84-14.53,6.5-17.17a29,29,0,0,1,14.1-1.22,16.55,16.55,0,0,1,10.52,5.53,17.15,17.15,0,0,1,3.22,5.5l-7.38,2.57c-.23-.34-.46-.65-.66-1-4-6.52-11.63-6.59-16.64-4.29a4.24,4.24,0,0,0-2.71,3.89,3.85,3.85,0,0,0,2.59,3.82c2.75,1.11,5.55,2.1,8.38,3,3.66,1.17,7.33,2.27,10.63,4.32a11.92,11.92,0,0,1,4.94,5.37,32,32,0,0,1,1.05,3.39v2.86c-.19.78-.33,1.57-.58,2.33-1.26,3.68-4,5.91-7.47,7.3a26.77,26.77,0,0,1-15.06,1.6c-5.62-1-10.25-3.72-13.24-8.78C266.88,169,266.43,167.86,265.91,166.8Z"/></g><path class="cls-1" d="M259,171.29c-.14-.29-.27-.58-.41-.86h0a10.12,10.12,0,0,1-2.79.36q-6,0-6-7.24V140.92h10.86v-7.6H249.79V120.73h-8.33v43.45q0,6.79,3.67,10.5t10.64,3.71a16.87,16.87,0,0,0,6.7-1.18l-.09-.23a26.55,26.55,0,0,1-1.95-2.84A31.42,31.42,0,0,1,259,171.29Z"/></g></g></svg>